<svg width="59" height="71" viewBox="0 0 59 71" fill="none" xmlns="http://www.w3.org/2000/svg">
<path d="M0.912871 71H57.0129C57.6129 71 58.0129 70.6 58.0129 70V64C58.0129 51.4 49.7129 40.1 37.8129 36.3V22C37.8129 20.2 36.3129 18.7 34.5129 18.7H23.6129C21.8129 18.7 20.3129 20.2 20.3129 22V36.2C8.31287 40 0.0128709 51.2 0.0128709 63.9V69.9C-0.0871291 70.6 0.412871 71 0.912871 71ZM56.0129 69H28.9629H1.91287V65.2H56.0129V69ZM22.3129 26.3H35.8129V44.1C33.7129 43.4 31.4129 42.9 29.0129 42.9C26.6129 42.9 24.4129 43.3 22.3129 44V26.3ZM28.8129 52.7C34.7129 52.7 39.6129 57.4 40.0129 63.2H17.6129C18.0129 57.4 22.8129 52.7 28.8129 52.7ZM41.9129 63.2C41.8129 62 41.6129 60.8 41.2129 59.7L46.7129 57.8C47.3129 59.5 47.6129 61.4 47.7129 63.3H41.9129V63.2ZM40.5129 57.8C39.7129 56.3 38.6129 54.9 37.3129 53.8L40.8129 49.1C43.0129 50.9 44.8129 53.2 46.0129 55.8L40.5129 57.8ZM35.7129 52.7C34.0129 51.7 32.1129 51 30.0129 50.8V45C33.4129 45.2 36.5129 46.3 39.2129 48L35.7129 52.7ZM28.0129 45V50.7C25.9129 50.8 23.9129 51.4 22.2129 52.4L18.8129 47.9C21.5129 46.2 24.6129 45.2 28.0129 45ZM17.2129 49.1L20.6129 53.6C19.2129 54.7 18.0129 56.2 17.1129 57.8L11.9129 56C13.1129 53.3 14.9129 51 17.2129 49.1ZM11.2129 57.8L16.3129 59.6C15.9129 60.7 15.7129 61.9 15.6129 63.2H10.2129C10.3129 61.3 10.6129 59.5 11.2129 57.8ZM56.0129 63.2H49.7129C49.5129 55.1 44.7129 48.2 37.8129 44.9V38.4C48.4129 42 55.7129 52 56.0129 63.2ZM23.6129 20.7H34.5129C35.2129 20.7 35.8129 21.3 35.8129 22V24.2H22.3129V22C22.3129 21.3 22.9129 20.7 23.6129 20.7ZM20.3129 38.4V44.9C13.3129 48.1 8.51287 55.1 8.31287 63.2H2.01287C2.31287 52 9.61287 42 20.3129 38.4Z" fill="#DD6106"/>
<path d="M25.7129 13.6C26.3129 13.6 26.7129 13.2 26.7129 12.6C26.7129 12 26.3129 11.6 25.7129 11.6C24.6129 11.6 23.8129 10.7 23.8129 9.7C23.8129 8.7 24.7129 7.8 25.7129 7.8C27.9129 7.8 29.6129 6 29.6129 3.9C29.6129 1.8 27.8129 0 25.7129 0C25.1129 0 24.7129 0.4 24.7129 1C24.7129 1.6 25.1129 2 25.7129 2C26.8129 2 27.6129 2.9 27.6129 3.9C27.6129 5 26.7129 5.8 25.7129 5.8C23.5129 5.8 21.8129 7.6 21.8129 9.7C21.8129 11.8 23.5129 13.6 25.7129 13.6Z" fill="#DD6106"/>
<path d="M33.3129 5.8C31.1129 5.8 29.4129 7.6 29.4129 9.7C29.4129 11.8 31.2129 13.6 33.3129 13.6C33.9129 13.6 34.3129 13.2 34.3129 12.6C34.3129 12 33.9129 11.6 33.3129 11.6C32.2129 11.6 31.4129 10.7 31.4129 9.7C31.4129 8.7 32.3129 7.8 33.3129 7.8C35.5129 7.8 37.2129 6 37.2129 3.9C37.2129 1.8 35.4129 0 33.3129 0C32.7129 0 32.3129 0.4 32.3129 1C32.3129 1.6 32.7129 2 33.3129 2C34.4129 2 35.2129 2.9 35.2129 3.9C35.3129 4.9 34.4129 5.8 33.3129 5.8Z" fill="#DD6106"/>
</svg>
