<svg width="56" height="64" viewBox="0 0 56 64" fill="none" xmlns="http://www.w3.org/2000/svg">
<path d="M15.2 36.5C15 36.9 14.6 37.1 14.2 37.2C13.8 37.3 13.4 37.3 13 37C12.6 36.8 12.4 36.4 12.3 36C12.2 35.6 12.2 35.2 12.5 34.8C12.8 34.3 13.3 34 13.9 34C14.2 34 14.4 34.1 14.7 34.2C15.3 34.7 15.6 35.7 15.2 36.5Z" fill="#DD2E2F"/>
<path d="M7.7 25.5C6.1 28.6 5.1 32.2 5.1 36C5.1 39.7 6 43.3 7.7 46.5L25.9 36L7.7 25.5ZM11.9 38.9C10.1 37.9 9.5 35.6 10.5 33.8C11.5 32 13.8 31.4 15.6 32.4C17.4 33.4 18 35.7 17 37.5C16 39.4 13.7 40 11.9 38.9Z" fill="#DD2E2F"/>
<path d="M22.8 23.5C22.8 24.4 22.1 25.1 21.2 25.1C20.3 25.1 19.6 24.4 19.6 23.5C19.6 22.6 20.3 21.9 21.2 21.9C22.1 21.9 22.8 22.7 22.8 23.5Z" fill="#DD2E2F"/>
<path d="M8.7 23.7L26.9 34.2V13.2C19.3 13.6 12.6 17.6 8.7 23.7ZM21.2 27.3C19.1 27.3 17.5 25.6 17.5 23.6C17.5 21.6 19.2 19.9 21.2 19.9C23.2 19.9 24.9 21.6 24.9 23.6C24.9 25.6 23.2 27.3 21.2 27.3Z" fill="#DD2E2F"/>
<path d="M22 47.4C22.4 48.2 22.2 49.1 21.4 49.6C20.6 50 19.7 49.8 19.2 49C18.8 48.2 19 47.3 19.8 46.8C20.5 46.4 21.5 46.6 22 47.4Z" fill="#DD2E2F"/>
<path d="M8.7 48.4C12.7 54.6 19.5 58.6 26.9 58.9V37.9L8.7 48.4ZM22.4 51.4C20.6 52.4 18.3 51.8 17.3 50C16.3 48.2 16.9 45.9 18.7 44.9C20.5 43.9 22.8 44.5 23.8 46.3C24.8 48.1 24.3 50.4 22.4 51.4Z" fill="#DD2E2F"/>
<path d="M36.4 48.5C36.4 49.4 35.7 50.1 34.8 50.1C33.9 50.1 33.2 49.4 33.2 48.5C33.2 47.6 33.9 46.9 34.8 46.9C35.7 46.9 36.4 47.7 36.4 48.5Z" fill="#DD2E2F"/>
<path d="M29.1 37.9V58.9C36.7 58.5 43.4 54.5 47.3 48.4L29.1 37.9ZM34.8 52.3C32.7 52.3 31.1 50.6 31.1 48.6C31.1 46.5 32.8 44.9 34.8 44.9C36.9 44.9 38.5 46.6 38.5 48.6C38.5 50.6 36.9 52.3 34.8 52.3Z" fill="#DD2E2F"/>
<path d="M43.6 37.2C43.2 38 42.2 38.2 41.4 37.8C40.6 37.4 40.4 36.4 40.8 35.6C41.2 34.8 42.2 34.6 43 35C43.8 35.4 44.1 36.4 43.6 37.2Z" fill="#DD2E2F"/>
<path d="M48.3 25.5L30.1 36L48.3 46.5C51.9 39.7 51.6 31.9 48.3 25.5ZM45.5 38.3C44.5 40.1 42.1 40.7 40.4 39.7C38.6 38.7 38 36.4 39 34.6C40 32.8 42.3 32.2 44.1 33.2C45.9 34.2 46.5 36.4 45.5 38.3Z" fill="#DD2E2F"/>
<path d="M28 64C12.6 64 0 51.5 0 36C0 21 12 8.7 26.9 8.1V11C13.5 11.6 3 22.7 3 36C3 40.4 4.2 44.7 6.4 48.5L6.5 48.6C11 56.3 19.2 61 28.1 61C46.6 61 59.1 41.2 50.3 24.4L52.8 22.9C62.4 41.3 49.2 64 28 64Z" fill="#DD2E2F"/>
<path d="M40.5 13.7C40.9 14.5 40.7 15.4 39.9 15.9C39.1 16.3 38.2 16.1 37.7 15.3C37.3 14.6 37.5 13.6 38.3 13.1C39.1 12.7 40.1 13 40.5 13.7Z" fill="#DD2E2F"/>
<path d="M33.1 5.1V26.1L51.3 15.6C46.3 8.1 41 6.2 33.1 5.1ZM41 17.8C39.2 18.8 36.9 18.2 35.9 16.4C34.9 14.6 35.5 12.3 37.3 11.3C39.1 10.3 41.4 10.9 42.4 12.7C43.4 14.4 42.8 16.7 41 17.8Z" fill="#DD2E2F"/>
<path d="M55.7 13L53.2 14.5C48.8 7.8 42.7 3.9 33.2 2.9V0C42.3 0.4 50.8 5.3 55.7 13Z" fill="#DD2E2F"/>
</svg>
